PathFileType   4   (X/Y/Z)																																																																																																																							
DataRate	CameraRate	NumFrames	NumMarkers	Units	OrigDataRate	OrigDataStartFrame	OrigNumFrames																																																																																																																
120	120	6	37	mm	120	18	136																																																																																																																
Frame#	Time	Sternum	R.Acromium	L.Acromium	Top.Head	R.ASIS	L.ASIS	V.Sacral	R.Thigh.Upper	R.Thigh.Front	R.Thigh.Rear	R.Knee.Lat	R.Knee.Med	R.Shank.Upper	R.Shank.Front	R.Shank.Rear	R.Ankle.Lat	R.Ankle.Med	R.Heel	R.Midfoot.Sup	R.Midfoot.Lat	R.Toe.Lat	R.Toe.Med	R.Toe.Tip	L.Thigh.Upper	L.Thigh.Front	L.Thigh.Rear	L.Knee.Lat	L.Knee.Med	L.Shank.Upper	L.Shank.Front	L.Shank.Rear	L.Ankle.Lat	L.Ankle.Med	L.Heel	L.Midfoot.Sup	L.Midfoot.Lat	L.Toe.Lat	L.Toe.Med	L.Toe.Tip																																																																															
 	 	X1	Y1	Z1	X2	Y2	Z2	X3	Y3	Z3	X4	Y4	Z4	X5	Y5	Z5	X6	Y6	Z6	X7	Y7	Z7	X8	Y8	Z8	X9	Y9	Z9	X10	Y10	Z10	X11	Y11	Z11	X12	Y12	Z12	X13	Y13	Z13	X14	Y14	Z14	X15	Y15	Z15	X16	Y16	Z16	X17	Y17	Z17	X18	Y18	Z18	X19	Y19	Z19	X20	Y20	Z20	X21	Y21	Z21	X22	Y22	Z22	X23	Y23	Z23	X24	Y24	Z24	X25	Y25	Z25	X26	Y26	Z26	X27	Y27	Z27	X28	Y28	Z28	X29	Y29	Z29	X30	Y30	Z30	X31	Y31	Z31	X32	Y32	Z32	X33	Y33	Z33	X34	Y34	Z34	X35	Y35	Z35	X36	Y36	Z36	X37	Y37	Z37	X38	Y38	Z38	X39	Y39	Z39	
																																																																																																																							
	18	0.375	1623.76296	-0.001000353	1248.593971	1558.000803	-161.6639114	1323.967238	1560.672005	164.9109026	1323.333427	1690.646258	-10.07056321	1532.492632	1605.540761	-126.4287728	879.8699977	1610.777139	128.1563878	871.3373586	1417.411123	-6.022778891	902.6765141	1617.062029	-163.1570236	613.0619041	1686.053148	-74.72940176	576.5656047	1644.271675	-154.4047096	503.781698	1635.286637	-137.316947	416.7603978	1638.78063	-24.75841468	401.5875716	1576.561141	-149.3438724	410.0174283	1604.032525	-96.85682453	335.0619139	1529.582668	-158.2831336	340.9238197	1337.373036	-134.0955655	144.0397131	1352.552762	-48.0330811	148.691708	1276.369068	-83.91925551	169.6897528	1385.852642	-49.92190453	84.78151232	1369.293447	-153.2800315	74.12642777	1417.506882	-162.0397613	-1.03742583	1427.646542	-57.59368751	6.759356015	1471.344009	-88.18151523	-32.42853216	1537.760519	167.6781368	597.6357331	1610.224408	97.4394069	558.6804728	1528.149646	153.3828701	496.7738912	1502.976072	138.945524	376.2901033	1504.11628	31.06670304	376.9447712	1500.789338	156.0706667	353.6958167	1541.279797	102.6419486	303.7798212	1482.416308	166.4841022	312.8523105	1485.971905	133.6260322	9.902721257	1490.837041	45.5255286	32.17483819	1413.155885	81.19863714	-4.823649279	1579.180484	55.77109965	-3.980933059	1561.472285	150.766436	-3.80329773	1622.176303	160.8566492	-26.80114567	1638.590606	62.45973316	-26.98529255	1685.984507	86.83216932	-26.66125886
	19	0.38333	1629.942805	-0.001000353	1248.57252	1564.320351	-161.6639114	1324.067448	1566.990374	164.9109026	1323.428691	1697.351763	-10.07056321	1532.346828	1611.222108	-126.4287728	880.2613191	1616.470732	128.1563878	871.7362071	1423.059919	-6.022778891	902.7976965	1626.015457	-163.1570236	615.3322738	1695.646498	-74.72940176	580.072206	1655.169741	-154.4047096	506.5547209	1647.738119	-137.316947	419.387017	1651.502157	-24.75841468	404.2789179	1589.450547	-149.3438724	410.9299015	1619.391241	-96.85682453	336.9261117	1544.787997	-158.2831336	340.3171524	1359.209708	-134.0955655	137.1704256	1374.226903	-48.0330811	142.3229973	1296.84882	-83.91925551	159.3859403	1410.779601	-49.92190453	80.54534619	1394.823146	-153.2800315	69.00717843	1447.045208	-162.0397613	-3.428976312	1456.746732	-57.59368751	4.906666588	1502.506801	-88.18151523	-31.85167001	1542.128322	167.6781368	597.6449954	1614.298777	97.4394069	558.1487556	1531.763217	153.3828701	496.8578701	1505.689063	138.945524	376.5657655	1506.834136	31.06670304	377.2118856	1503.302085	156.0706667	353.9863275	1543.393091	102.6419486	303.7489405	1484.603844	166.4841022	313.2906766	1485.742795	133.6260322	10.32236355	1490.785433	45.5255286	32.55496427	1412.871706	81.19863714	-4.142219691	1578.898198	55.77109965	-3.856530401	1561.190695	150.766436	-3.619484034	1621.817212	160.8566492	-26.82086805	1638.230805	62.45973316	-27.06008483	1685.625527	86.83216932	-26.89506226
	20	0.39167	1636.116425	-0.001000353	1248.542333	1570.630298	-161.6639114	1324.155545	1573.299165	164.9109026	1323.511972	1704.037307	-10.07056321	1532.194549	1616.915754	-126.4287728	880.6458041	1622.177138	128.1563878	872.1285616	1428.720027	-6.022778891	902.9003793	1634.777333	-163.1570236	617.5276651	1704.992136	-74.72940176	583.4448881	1665.75884	-154.4047096	509.2563648	1659.795809	-137.316947	421.9758982	1663.81367	-24.75841468	406.9333108	1602.066563	-149.3438724	411.7265015	1634.631886	-96.85682453	338.839563	1559.955119	-158.2831336	339.5632832	1381.752583	-134.0955655	129.9165565	1396.57612	-48.0330811	135.6023195	1318.225755	-83.91925551	148.616353	1436.290842	-49.92190453	76.11326711	1420.988098	-153.2800315	63.72118143	1477.086851	-162.0397613	-5.755937616	1486.318832	-57.59368751	3.096918134	1534.017438	-88.18151523	-31.10837679	1546.509889	167.6781368	597.6518337	1618.382344	97.4394069	557.6158773	1535.389804	153.3828701	496.9452116	1508.414946	138.945524	376.851877	1509.564829	31.06670304	377.4893982	1505.829353	156.0706667	354.2891786	1545.519148	102.6419486	303.7342177	1486.807726	166.4841022	313.7436745	1485.5347	133.6260322	10.7758952	1490.754173	45.5255286	32.96764678	1412.606699	81.19863714	-3.411303224	1578.63315	55.77109965	-3.719681261	1560.926608	150.766436	-3.419276541	1621.469719	160.8566492	-26.837442	1637.882351	62.45973316	-27.13538733	1685.27736	86.83216932	-27.13995062
	21	0.4	1642.290671	-0.001000353	1248.493046	1576.935093	-161.6639114	1324.219125	1579.602846	164.9109026	1323.570948	1710.700821	-10.07056321	1532.02766	1622.633529	-126.4287728	880.9988213	1627.907454	128.1563878	872.4893382	1434.405224	-6.022778891	902.9761541	1643.346824	-163.1570236	619.6157169	1714.090671	-74.72940176	586.6450884	1676.032865	-154.4047096	511.8467466	1671.447758	-137.316947	424.4830563	1675.702472	-24.75841468	409.5057387	1614.404003	-149.3438724	412.3786385	1649.725334	-96.85682453	340.7866718	1575.075293	-158.2831336	338.6619086	1404.997719	-134.0955655	122.3715647	1419.593634	-48.0330811	128.6185183	1340.507226	-83.91925551	137.5064138	1462.353846	-49.92190453	71.55595342	1447.750333	-153.2800315	58.34704848	1507.557832	-162.0397613	-7.964363162	1516.29282	-57.59368751	1.37921818	1565.787396	-88.18151523	-30.17147295	1550.898099	167.6781368	597.63868	1622.465612	97.4394069	557.0601319	1539.016455	153.3828701	497.0190667	1511.133825	138.945524	377.1332422	1512.288498	31.06670304	377.7620459	1508.355904	156.0706667	354.5896114	1547.644599	102.6419486	303.7223109	1489.014182	166.4841022	314.1958245	1485.344914	133.6260322	11.2475907	1490.739746	45.5255286	33.39736543	1412.358726	81.19863714	-2.648707685	1578.382832	55.77109965	-3.583455673	1560.67755	150.766436	-3.216251179	1621.13188	160.8566492	-26.86266249	1637.543271	62.45973316	-27.22252605	1684.937925	86.83216932	-27.40589764
	22	0.40833	1648.470745	-0.001000353	1248.415519	1583.237541	-161.6639114	1324.247041	1585.904243	164.9109026	1323.594556	1717.338679	-10.07056321	1531.839289	1628.386033	-126.4287728	881.2979026	1633.671619	128.1563878	872.7956576	1440.127776	-6.022778891	903.0171712	1651.723534	-163.1570236	621.5658711	1722.943356	-74.72940176	589.6363979	1685.98672	-154.4047096	514.2879035	1682.68348	-137.316947	426.8663604	1687.157411	-24.75841468	411.9530583	1626.45825	-149.3438724	412.8600125	1664.641879	-96.85682453	342.7528335	1590.138537	-158.2831336	337.6151974	1428.934193	-134.0955655	114.6330155	1443.265929	-48.0330811	121.4643028	1363.687786	-83.91925551	126.1852327	1488.934451	-49.92190453	66.94559237	1475.06942	-153.2800315	52.96350868	1538.388009	-162.0397613	-10.00391481	1546.602969	-57.59368751	-0.199988929	1597.737094	-88.18151523	-29.01769966	1555.287462	167.6781368	597.5898738	1626.541057	97.4394069	556.4625997	1542.633009	153.3828701	497.0645294	1513.830002	138.945524	377.3964939	1514.989472	31.06670304	378.0164066	1510.869537	156.0706667	354.8744557	1549.758587	102.6419486	303.7009702	1491.212007	166.4841022	314.6334103	1485.16988	133.6260322	11.72321143	1490.738044	45.5255286	33.83004933	1412.124764	81.19863714	-1.870728372	1578.143901	55.77109965	-3.45938291	1560.440202	150.766436	-3.022446037	1620.800928	160.8566492	-26.90678346	1637.210774	62.45973316	-27.33128324	1684.604339	86.83216932	-27.70132521
	23	0.41667	1654.659929	-0.001000353	1248.302313	1589.538576	-161.6639114	1324.229911	1592.204314	164.9109026	1323.573496	1723.945575	-10.07056321	1531.624259	1634.182457	-126.4287728	881.5238557	1639.47828	128.1563878	873.0279834	1445.898176	-6.022778891	903.0163492	1659.907908	-163.1570236	623.3503598	1731.55247	-74.72940176	592.3856844	1695.616852	-154.4047096	516.5449309	1693.494616	-137.316947	429.0867483	1698.169557	-24.75841468	414.2352308	1638.225879	-149.3438724	413.1480717	1679.351664	-96.85682453	344.7252983	1605.133636	-158.2831336	336.4290572	1453.541958	-134.0955655	106.803586	1467.57073	-48.0330811	114.2372054	1387.747603	-83.91925551	114.7867828	1515.994131	-49.92190453	62.35692358	1502.899778	-153.2800315	47.65060936	1569.507689	-162.0397613	-11.8264994	1577.184439	-57.59368751	-1.595662397	1629.792002	-88.18151523	-27.62648098	1559.674846	167.6781368	597.4922903	1630.603973	97.4394069	555.8079238	1546.233048	153.3828701	497.0691949	1516.493186	138.945524	377.6305388	1517.657479	31.06670304	378.2413466	1513.362128	156.0706667	355.1326034	1551.853711	102.6419486	303.6594855	1493.393551	166.4841022	315.0449978	1485.005789	133.6260322	12.19067416	1490.744987	45.5255286	34.25372781	1411.901482	81.19863714	-1.091382022	1577.912762	55.77109965	-3.356907664	1560.210992	150.766436	-2.847793853	1620.473836	160.8566492	-26.97803226	1636.881815	62.45973316	-27.46943386	1684.273477	86.83216932	-28.03270325
